# xmcd
# Copyright (C) 1995-1998 Ti Kan
#
# Track frame offsets:
#       150
#       21460
#       36690
#       53682
#       73693
#       99734
#       123743
#       135856
#       152957
#       172917
#
# Disc length: 2698 seconds
#
# Revision: 0
# Processed by: cddbd v1.5.2PL0 Copyright (c) Steve Scherf et al.
# Submitted via: CD-Transfer v1.0
#
DISCID=8d0a880a
DTITLE=Free Energy - Free Energy
DYEAR=10
DGENRE=
TTITLE0=Free Energy
TTITLE1=Dream City
TTITLE2=Bang Pop
TTITLE3=All I Know
TTITLE4=Bad Stuff
TTITLE5=Dark Trance
TTITLE6=Young Hearts
TTITLE7=Light Love
TTITLE8=Hope Child
TTITLE9=Wild Wind
EXTD=
EXTT0=
EXTT1=
EXTT2=
EXTT3=
EXTT4=
EXTT5=
EXTT6=
EXTT7=
EXTT8=
EXTT9=
PLAYORDER=
